SplineFontDB: 3.0
FontName: PoppyFont
FullName: PoppyFont
FamilyName: Poppy
Weight: Regular
Copyright: Copyright (c) 2015, Joe Marchese
UComments: "2015-12-17: Created with FontForge (http://fontforge.org)"
Version: 001.000
ItalicAngle: 0
UnderlinePosition: -100
UnderlineWidth: 50
Ascent: 800
Descent: 200
InvalidEm: 0
LayerCount: 2
Layer: 0 0 "Back" 1
Layer: 1 0 "Fore" 0
XUID: [1021 897 1665653862 17929]
StyleMap: 0x0000
FSType: 0
OS2Version: 0
OS2_WeightWidthSlopeOnly: 0
OS2_UseTypoMetrics: 1
CreationTime: 1450387725
ModificationTime: 1450408069
OS2TypoAscent: 0
OS2TypoAOffset: 1
OS2TypoDescent: 0
OS2TypoDOffset: 1
OS2TypoLinegap: 90
OS2WinAscent: 0
OS2WinAOffset: 1
OS2WinDescent: 0
OS2WinDOffset: 1
HheadAscent: 0
HheadAOffset: 1
HheadDescent: 0
HheadDOffset: 1
MarkAttachClasses: 1
DEI: 91125
Encoding: ISO8859-1
UnicodeInterp: none
NameList: AGL For New Fonts
DisplaySize: -48
AntiAlias: 1
FitToEm: 0
WinInfo: 38 19 6
BeginPrivate: 0
EndPrivate
BeginChars: 256 62

StartChar: zero
Encoding: 48 48 0
Width: 1000
VWidth: 0
Flags: HM
LayerCount: 2
Back
Fore
SplineSet
538 789 m 0
 591 800 674 750 708 686 c 0
 717 669 731 650 739 644 c 0
 763 624 787 520 783 449 c 0
 775 294 758 254 659 151 c 0
 598 88 468 22 384 12 c 0
 323 5 313 7 270 36 c 0
 170 103 183 227 303 350 c 0
 311 359 327 380 338 396 c 0
 361 430 389 462 447 523 c 0
 469 546 505 583 523 603 c 0
 542 624 570 648 586 658 c 0
 611 673 616 674 625 660 c 0
 632 649 627 641 613 633 c 0
 592 622 514 541 464 479 c 0
 451 463 428 437 412 421 c 0
 396 405 367 369 347 340 c 0
 327 311 308 286 305 283 c 0
 273 255 247 199 247 161 c 0
 247 74 312 39 425 65 c 0
 480 78 594 138 630 174 c 0
 711 255 765 393 747 476 c 0
 742 499 740 523 741 531 c 0
 745 553 686 664 653 698 c 0
 624 728 607 735 547 744 c 0
 516 748 509 783 538 789 c 0
EndSplineSet
Validated: 33
EndChar

StartChar: one
Encoding: 49 49 1
Width: 980
VWidth: 0
Flags: W
LayerCount: 2
Back
Fore
SplineSet
572.395507812 655.46484375 m 0
 603.580078125 727.55859375 633.35546875 780.46484375 642.744140625 780.46484375 c 0
 667.692382812 780.46484375 661.44921875 753.720703125 612.345703125 650.232421875 c 0
 586.965820312 596.744140625 554.978515625 523.626953125 541.63671875 488.604492188 c 0
 512.84375 413.0234375 494.258789062 372.754882812 478.310546875 351.395507812 c 0
 464.413085938 332.783203125 405.439453125 176.9765625 390.725585938 120 c 0
 385.01953125 97.9072265625 385.603515625 82.791015625 392.163085938 82.791015625 c 0
 398.422851562 82.791015625 395.147460938 67.6748046875 384.604492188 47.9072265625 c 0
 374.0625 28.1396484375 358.9453125 13.0234375 349.720703125 13.0234375 c 0
 316.711914062 13.0234375 320.111328125 59.53515625 362.215820312 183.953125 c 0
 401.110351562 298.889648438 420.606445312 343.255859375 494.047851562 483.953125 c 0
 507.372070312 509.48046875 542.719726562 586.860351562 572.395507812 655.46484375 c 0
EndSplineSet
Validated: 524321
EndChar

StartChar: two
Encoding: 50 50 2
Width: 1000
VWidth: 0
HStem: 22 73<575.254 736.219> 29 86<144.049 193.586> 229 66<218.191 324> 583 21G<377 389.5> 635 50<589.601 676.389> 635 42<578.827 654.624> 710 61<588.198 634.734>
VStem: 95 49<115.661 187.75> 683 62<519.308 626.923>
LayerCount: 2
Back
Fore
SplineSet
576 742 m 0x7b80
 605 762 634 771 650 771 c 0
 659 771 663 768 663 763 c 0
 663 757 656 748 639 735 c 0
 621 721 600 710 592 710 c 0
 584 710 578 701 578 690 c 0
 578 682 586 677 600 677 c 0x3780
 608 677 617 678 628 681 c 0
 638 683 647 685 655 685 c 0
 678 685 696 675 717 651 c 0
 737 629 745 616 745 597 c 0
 745 583 740 564 730 535 c 0
 708 467 641 391 504 278 c 2
 443 227 l 1
 513 162 l 2
 562 117 608 95 656 95 c 0
 714 95 773 128 838 195 c 0
 863 221 880 234 890 234 c 0
 894 234 897 232 899 227 c 0
 899 226 900 225 900 224 c 0
 900 208 864 160 816 113 c 0
 737 35 714 22 652 22 c 0xbb80
 593 22 562 38 479 107 c 2
 378 192 l 1
 270 103 l 2
 204 49 173 29 151 29 c 0
 144 29 138 31 132 35 c 0
 108 51 95 82 95 118 c 0
 95 141 100 165 110 190 c 0
 132 244 240 295 318 295 c 0
 330 295 341 294 351 291 c 0
 360 289 369 288 377 288 c 0
 403 288 427 302 470 337 c 0
 508 368 546 394 553 394 c 0
 574 394 668 515 679 556 c 0
 682 567 683 577 683 586 c 0
 683 619 663 635 621 635 c 0
 587 635 539 625 475 604 c 0
 436 591 399 583 380 583 c 0
 374 583 370 584 368 586 c 0
 365 589 364 592 364 596 c 0
 364 618 403 653 457 675 c 0
 489 688 542 718 576 742 c 0x7b80
308 221 m 0
 308 227 299 229 285 229 c 0
 251 229 190 214 173 197 c 0
 156 179 144 150 144 132 c 0
 144 122 148 115 155 115 c 0x7380
 168 115 308 212 308 221 c 0
EndSplineSet
Validated: 1
EndChar

StartChar: three
Encoding: 51 51 3
Width: 1000
VWidth: 0
HStem: 389 36<694 733.975> 768 20G<675.5 687.5>
LayerCount: 2
Back
Fore
SplineSet
657 764 m 0
 663 776 673 788 678 788 c 0
 697 788 700 767 683 741 c 2
 665 714 l 1
 692 725 l 2
 736 742 787 738 809 716 c 0
 829 696 829 694 814 641 c 0
 797 583 751 510 703 468 c 0
 682 449 678 441 689 434 c 0
 697 429 710 425 718 425 c 0
 771 425 785 337 748 239 c 0
 736 208 724 172 721 161 c 0
 707 114 636 46 583 30 c 0
 530 14 346 19 306 38 c 0
 223 78 177 156 238 155 c 0
 253 155 274 149 283 142 c 0
 305 125 309 99 287 108 c 0
 242 127 239 124 279 99 c 0
 360 47 514 40 601 83 c 0
 667 116 729 236 732 338 c 2
 734 389 l 1
 694 392 l 2
 650 395 623 385 522 329 c 0
 444 285 424 282 424 310 c 0
 424 336 437 346 512 375 c 0
 560 393 594 417 650 472 c 0
 736 556 770 599 770 624 c 0
 770 633 775 645 780 648 c 0
 796 658 791 682 771 693 c 0
 749 705 655 684 605 655 c 0
 542 619 535 613 512 592 c 0
 481 563 463 564 467 594 c 0
 469 609 499 637 558 679 c 0
 607 713 651 751 657 764 c 0
EndSplineSet
Validated: 33
EndChar

StartChar: four
Encoding: 52 52 4
Width: 1000
VWidth: 0
HStem: 306 68<263.772 521.586> 766 20G<453 471.5>
VStem: 323 92<596.203 642.658>
LayerCount: 2
Back
Fore
SplineSet
390 712 m 0
 418 760 443 786 463 786 c 0
 480 786 493 780 493 772 c 0
 493 752 440 656 426 649 c 0
 420 646 415 639 415 631 c 0
 415 624 397 598 376 575 c 0
 339 535 262 400 262 376 c 0
 262 370 296 369 339 374 c 0
 387 380 444 376 489 362 c 0
 529 350 567 339 572 339 c 0
 578 339 597 375 616 420 c 0
 635 464 678 543 710 592 c 0
 742 641 770 690 773 699 c 0
 776 708 791 710 805 705 c 0
 828 696 820 672 746 521 c 0
 699 426 644 320 625 286 c 0
 564 178 539 112 539 62 c 0
 539 25 533 16 513 20 c 0
 471 28 468 138 508 216 c 0
 526 251 535 286 530 291 c 0
 525 296 454 303 372 306 c 0
 290 309 214 319 203 328 c 0
 174 352 192 405 263 510 c 0
 297 559 323 606 323 614 c 0
 323 623 329 631 336 634 c 0
 343 637 367 672 390 712 c 0
EndSplineSet
Validated: 33
EndChar

StartChar: five
Encoding: 53 53 5
Width: 1000
VWidth: 0
HStem: 10 21G<341 449.5> 371 47<392.061 642.565> 754 31<737.877 816.335>
LayerCount: 2
Back
Fore
SplineSet
450 767 m 0
 450 797 476 797 503 767 c 0
 530 737 572 737 674 768 c 0
 726 784 768 790 793 785 c 0
 836 777 846 756 809 754 c 0
 780 752 780 752 699 727 c 0
 661 715 597 705 556 704 c 0
 485 703 481 701 463 668 c 0
 437 619 407 525 399 466 c 2
 392 418 l 1
 474 418 l 2
 556 418 698 390 725 368 c 0
 733 362 743 359 747 363 c 0
 751 367 762 365 770 358 c 0
 812 323 768 209 681 130 c 0
 579 37 513 11 386 10 c 0
 296 10 244 25 199 65 c 0
 132 124 140 176 213 157 c 0
 249 148 251 126 216 126 c 2
 192 126 l 1
 218 103 l 2
 233 90 270 75 302 68 c 0
 449 37 559 68 652 166 c 0
 715 232 760 316 736 322 c 0
 728 324 712 330 699 335 c 0
 639 360 572 371 477 371 c 0
 412 371 369 376 360 385 c 0
 327 418 356 556 422 687 c 0
 437 717 450 754 450 767 c 0
EndSplineSet
Validated: 33
EndChar

StartChar: six
Encoding: 54 54 6
Width: 1000
VWidth: 0
LayerCount: 2
Back
Fore
SplineSet
601 745 m 0
 623 780 624 780 643 768 c 0
 655 761 654 757 641 742 c 0
 632 733 612 700 597 671 c 0
 554 589 529 545 516 532 c 0
 510 526 505 514 505 508 c 0
 505 502 499 493 493 491 c 0
 486 489 470 466 459 442 c 0
 448 418 415 359 386 311 c 0
 297 163 259 83 270 66 c 0
 287 39 381 42 370 69 c 0
 361 92 395 171 429 207 c 0
 524 306 584 342 634 332 c 0
 667 325 678 310 682 265 c 0
 691 154 575 66 360 22 c 0
 297 9 290 10 264 25 c 0
 241 38 237 46 237 75 c 0
 237 113 251 146 294 208 c 0
 309 230 319 247 316 247 c 0
 309 247 368 342 377 346 c 0
 381 348 385 353 385 358 c 0
 385 363 389 372 395 378 c 0
 410 395 491 535 525 603 c 0
 542 636 558 664 561 667 c 0
 564 670 570 680 574 692 c 0
 578 704 590 728 601 745 c 0
649 272 m 0
 645 301 639 310 627 310 c 0
 586 309 440 187 421 139 c 0
 416 127 412 106 412 90 c 0
 412 67 416 63 429 69 c 0
 438 73 465 84 490 94 c 0
 620 144 661 190 649 272 c 0
EndSplineSet
Validated: 33
EndChar

StartChar: seven
Encoding: 55 55 7
Width: 1000
VWidth: 0
HStem: 10 21G<278 300> 616 94<554 720>
LayerCount: 2
Back
Fore
SplineSet
785 745 m 0
 821 783 885 792 885 759 c 0
 885 747 868 728 847 715 c 0
 795 683 693 577 647 507 c 0
 627 476 569 396 516 327 c 0
 463 258 421 195 421 184 c 0
 421 160 309 10 291 10 c 0
 265 10 264 56 289 104 c 0
 303 131 344 189 379 232 c 0
 414 276 480 364 526 430 c 0
 572 496 616 555 625 563 c 0
 634 571 645 587 650 600 c 0
 658 621 647 623 554 616 c 0
 472 610 443 612 416 630 c 0
 384 651 378 650 320 609 c 0
 286 585 247 554 233 539 c 0
 207 512 154 503 154 525 c 0
 154 543 388 752 408 752 c 0
 414 752 422 738 424 721 c 0
 430 673 484 652 574 663 c 0
 616 668 660 681 670 691 c 0
 680 701 703 710 720 710 c 0
 737 710 766 725 785 745 c 0
EndSplineSet
Validated: 33
EndChar

StartChar: eight
Encoding: 56 56 8
Width: 1000
VWidth: 0
LayerCount: 2
Back
Fore
SplineSet
488 768 m 0
 530 803 566 795 566 751 c 0
 566 718 574 705 619 676 c 0
 679 637 680 611 622 494 c 0
 596 442 565 395 530 357 c 0
 499 323 479 294 482 287 c 0
 524 177 498 86 408 29 c 0
 359 -2 332 -3 304 25 c 0
 259 70 287 146 381 243 c 0
 434 297 439 312 416 344 c 0
 405 359 388 413 380 459 c 0
 372 505 393 632 408 632 c 0
 412 632 415 636 415 641 c 0
 415 656 446 721 453 721 c 0
 457 721 460 726 460 732 c 0
 460 739 472 755 488 768 c 0
538 724 m 0
 536 743 531 760 526 761 c 0
 507 767 459 695 428 613 c 0
 407 559 405 541 409 487 c 0
 413 429 446 331 461 331 c 0
 474 331 566 428 566 441 c 0
 566 448 569 455 573 455 c 0
 581 455 623 545 632 582 c 0
 642 624 631 646 592 659 c 0
 548 674 542 681 538 724 c 0
468 220 m 0
 462 247 453 268 449 268 c 0
 431 268 343 169 326 130 c 0
 293 54 305 25 361 38 c 0
 407 48 437 77 461 132 c 0
 477 168 478 177 468 220 c 0
EndSplineSet
Validated: 33
EndChar

StartChar: nine
Encoding: 57 57 9
Width: 1000
VWidth: 0
VStem: 452 33<18.4535 156.463>
LayerCount: 2
Back
Fore
SplineSet
611 597 m 0
 622 614 635 627 641 625 c 0
 662 618 657 577 632 540 c 0
 598 490 585 455 555 347 c 0
 541 297 520 227 510 192 c 0
 500 156 489 103 485 72 c 0
 480 33 474 17 464 17 c 0
 453 17 451 30 452 81 c 0
 454 141 490 279 533 389 c 0
 557 450 560 465 544 459 c 0
 519 450 526 471 560 509 c 0
 577 528 592 549 592 555 c 0
 592 561 600 580 611 597 c 0
483 774 m 0
 527 784 532 784 563 773 c 0
 593 763 601 745 601 689 c 0
 601 633 583 571 554 534 c 0
 540 516 525 485 522 468 c 0
 518 443 509 432 485 420 c 0
 468 412 451 399 448 391 c 0
 444 380 434 379 405 384 c 0
 354 392 302 427 295 459 c 0
 288 491 303 572 323 611 c 0
 340 644 392 712 403 717 c 0
 407 719 419 731 431 744 c 0
 443 757 466 770 483 774 c 0
554 744 m 0
 542 756 540 757 519 750 c 0
 406 713 305 558 330 460 c 0
 339 424 427 401 427 434 c 0
 427 444 438 458 452 467 c 0
 492 493 520 530 543 587 c 0
 566 644 572 726 554 744 c 0
EndSplineSet
Validated: 33
EndChar

StartChar: A
Encoding: 65 65 10
Width: 1000
VWidth: 0
HStem: 346 57<411.138 565.989> 386 45<657.811 908.1>
VStem: 566 62<299.231 356.543>
LayerCount: 2
Back
Fore
SplineSet
649 768 m 0xa0
 699 794 713 794 734 773 c 0
 763 744 753 674 701 548 c 0
 674 482 651 427 651 427 c 0
 651 427 703 428 767 431 c 0
 838 434 889 431 899 421 c 0
 921 399 912 395 816 386 c 0x60
 769 381 717 375 701 371 c 0
 685 367 661 364 646 363 c 0
 629 362 623 355 628 341 c 0
 632 330 629 319 622 319 c 0
 614 319 609 311 609 301 c 0
 609 291 585 235 556 176 c 0
 527 117 498 55 490 38 c 0
 460 -29 436 25 465 95 c 0
 496 169 566 350 566 356 c 0
 566 360 551 359 534 354 c 0
 517 349 474 346 440 346 c 0
 370 347 363 340 245 189 c 0
 173 96 153 76 133 76 c 0
 110 76 125 144 155 178 c 0
 173 198 196 229 207 248 c 0
 225 280 224 284 190 311 c 0
 129 359 145 391 231 391 c 0
 265 391 366 478 366 508 c 0
 366 514 385 551 409 591 c 0
 457 670 502 703 527 678 c 0
 537 668 553 677 576 706 c 0
 595 729 628 757 649 768 c 0xa0
694 673 m 0
 711 740 710 747 683 737 c 0
 663 730 409 425 409 408 c 0
 409 402 447 400 494 403 c 2xa0
 580 408 l 1
 629 510 l 2
 656 566 686 639 694 673 c 0
516 619 m 0
 530 635 535 648 527 648 c 0
 508 648 473 608 483 598 c 0
 487 594 502 603 516 619 c 0
EndSplineSet
Validated: 33
EndChar

StartChar: B
Encoding: 66 66 11
Width: 1000
VWidth: 0
LayerCount: 2
Back
Fore
SplineSet
742 752 m 0
 913 873 894 681 718 508 c 0
 639 430 630 408 677 408 c 0
 691 408 719 387 738 362 c 0
 787 297 778 218 711 136 c 0
 626 32 523 -2 379 28 c 0
 330 38 286 54 281 63 c 0
 275 74 263 67 244 43 c 0
 215 6 189 8 189 48 c 0
 189 79 262 194 288 204 c 0
 299 208 305 216 302 221 c 0
 299 226 319 260 348 299 c 0
 377 338 400 374 400 381 c 0
 400 388 407 398 416 404 c 0
 425 410 459 449 489 490 c 0
 563 590 670 701 742 752 c 0
792 676 m 0
 823 742 819 751 776 719 c 0
 643 619 612 587 563 502 c 0
 544 469 521 436 513 431 c 0
 487 413 517 421 565 444 c 0
 590 456 611 471 611 477 c 0
 611 483 618 488 626 488 c 0
 653 488 762 611 792 676 c 0
685 348 m 0
 652 371 540 372 492 350 c 0
 454 332 413 290 413 267 c 0
 413 258 409 250 403 247 c 0
 398 244 380 222 363 198 c 2
 333 154 l 1
 363 157 l 2
 417 162 453 156 453 142 c 0
 453 134 448 130 442 132 c 0
 424 137 333 101 339 91 c 0
 352 70 524 75 572 98 c 0
 708 164 766 292 685 348 c 0
EndSplineSet
Validated: 33
EndChar

StartChar: C
Encoding: 67 67 12
Width: 1000
VWidth: 0
VStem: 157 457<66 189>
LayerCount: 2
Back
Fore
SplineSet
702 755 m 0
 838 798 920 698 826 605 c 0
 803 583 793 569 802 575 c 0
 812 581 821 577 825 565 c 0
 835 538 758 466 720 466 c 0
 668 466 683 524 756 604 c 0
 829 684 826 708 744 707 c 0
 682 707 540 618 378 477 c 0
 247 363 175 212 218 142 c 0
 248 94 526 48 569 85 c 0
 591 104 614 94 614 66 c 0
 614 30 563 17 444 24 c 0
 381 27 320 34 310 37 c 0
 267 51 237 67 199 98 c 0
 163 127 157 139 157 189 c 0
 157 305 280 487 418 578 c 0
 440 592 459 607 463 611 c 0
 488 640 654 740 702 755 c 0
EndSplineSet
Validated: 33
EndChar

StartChar: D
Encoding: 68 68 13
Width: 1000
VWidth: 0
VStem: 101 114<84.8273 190.988>
LayerCount: 2
Back
Fore
SplineSet
476 751 m 0
 601 814 737 749 852 570 c 0
 918 468 926 443 929 344 c 0
 932 245 928 228 888 185 c 0
 808 99 756 75 624 65 c 0
 507 56 487 59 383 108 c 0
 321 137 264 170 258 180 c 0
 242 206 215 186 215 150 c 0
 215 96 150 8 120 20 c 0
 99 29 95 49 101 113 c 0
 105 158 113 204 119 214 c 0
 125 225 134 248 137 265 c 0
 167 421 214 545 244 545 c 0
 256 545 266 553 266 561 c 0
 266 590 406 716 476 751 c 0
631 656 m 0
 555 695 508 689 426 631 c 0
 370 591 347 558 319 480 c 0
 299 425 276 367 267 351 c 0
 239 302 247 260 287 234 c 0
 309 220 330 207 335 206 c 0
 340 205 364 196 390 185 c 0
 464 154 610 132 621 150 c 0
 626 158 645 163 660 159 c 0
 715 146 817 214 845 282 c 0
 869 339 869 349 843 393 c 0
 828 419 819 441 825 441 c 0
 840 441 768 545 722 591 c 0
 701 612 660 641 631 656 c 0
EndSplineSet
Validated: 33
EndChar

StartChar: E
Encoding: 69 69 14
Width: 1000
VWidth: 0
HStem: 446 72<463.212 655.27>
LayerCount: 2
Back
Fore
SplineSet
402 779 m 0
 402 785 406 789 412 789 c 0
 436 789 619 741 630 732 c 0
 637 726 687 716 744 708 c 0
 801 700 849 690 853 686 c 0
 889 650 710 655 599 693 c 0
 551 709 506 722 498 722 c 0
 488 722 479 695 471 642 c 0
 465 598 457 555 453 546 c 0
 449 537 451 521 457 512 c 0
 471 490 628 494 686 518 c 0
 730 537 755 530 720 509 c 0
 708 502 682 485 661 471 c 0
 630 451 607 446 546 446 c 0
 504 446 467 451 463 457 c 0
 447 483 427 461 376 363 c 0
 346 306 317 255 312 252 c 0
 299 244 300 181 313 179 c 0
 338 176 390 155 451 124 c 2
 493 102 l 1
 533 126 l 2
 555 139 580 158 587 167 c 0
 595 177 608 181 620 176 c 0
 637 169 634 163 599 132 c 0
 577 113 541 87 520 76 c 0
 482 55 481 55 433 76 c 0
 406 88 372 105 357 116 c 0
 341 127 322 136 313 137 c 0
 260 143 248 135 208 70 c 0
 167 4 154 -6 140 16 c 0
 129 34 145 77 175 112 c 0
 190 130 221 178 243 220 c 0
 265 262 291 309 302 324 c 0
 336 374 376 462 384 504 c 0
 388 526 396 546 401 548 c 0
 406 550 416 595 421 648 c 0
 429 724 427 748 416 757 c 0
 408 763 402 774 402 779 c 0
EndSplineSet
Validated: 33
EndChar

StartChar: F
Encoding: 70 70 15
Width: 1000
VWidth: 0
HStem: 714 27<900.393 946.923>
VStem: 317 106<541.081 619.733>
LayerCount: 2
Back
Fore
SplineSet
724 784 m 0
 736 790 790 783 846 768 c 0
 902 753 953 741 960 741 c 0
 967 741 968 734 963 725 c 0
 958 717 899 712 829 714 c 0
 739 717 681 710 621 690 c 0
 471 640 423 618 423 596 c 0
 423 584 410 554 393 527 c 2
 362 479 l 1
 405 471 l 2
 448 463 612 470 648 482 c 0
 659 486 666 483 666 476 c 0
 666 469 704 475 751 487 c 0
 812 503 840 505 852 493 c 0
 897 449 671 403 405 402 c 0
 327 402 319 399 311 365 c 0
 306 344 295 328 287 328 c 0
 279 328 265 301 256 267 c 0
 240 208 168 82 121 29 c 0
 98 2 96 3 88 43 c 0
 83 67 87 95 97 107 c 0
 133 153 195 268 195 288 c 0
 195 300 202 312 211 315 c 0
 220 318 237 360 250 409 c 0
 263 458 283 512 295 530 c 0
 307 548 317 572 317 583 c 0
 317 612 363 696 379 696 c 0
 387 696 395 696 400 696 c 0
 404 696 444 709 488 726 c 0
 532 743 598 760 635 764 c 0
 671 768 713 778 724 784 c 0
EndSplineSet
Validated: 33
EndChar

StartChar: G
Encoding: 71 71 16
Width: 1000
VWidth: 0
HStem: 75 90<293.119 329.809>
VStem: 474 74<-78.4792 19.1896>
LayerCount: 2
Back
Fore
SplineSet
451 754 m 0
 559 800 611 784 679 685 c 0
 711 639 717 509 689 492 c 0
 653 471 631 504 631 578 c 0
 631 634 624 653 598 674 c 0
 580 688 552 700 537 700 c 0
 498 701 396 641 360 596 c 0
 344 577 319 548 306 534 c 0
 238 462 211 223 269 206 c 0
 284 202 295 190 295 178 c 0
 295 167 302 161 309 165 c 0
 317 170 326 168 330 161 c 0
 343 140 482 142 526 164 c 0
 567 184 612 262 590 274 c 0
 561 290 394 297 368 284 c 0
 311 255 244 329 298 361 c 0
 330 380 616 360 721 331 c 0
 758 321 752 292 704 258 c 0
 676 238 664 218 667 201 c 0
 670 186 657 162 637 144 c 0
 618 127 602 101 602 89 c 0
 602 76 592 54 581 39 c 0
 570 24 555 -11 548 -37 c 0
 538 -72 526 -86 502 -90 c 0
 471 -95 469 -91 474 -31 c 0
 477 4 483 37 489 42 c 0
 511 62 480 75 410 75 c 0
 262 75 168 154 153 290 c 0
 140 414 193 540 305 649 c 0
 369 712 394 730 451 754 c 0
EndSplineSet
Validated: 33
EndChar

StartChar: H
Encoding: 72 72 17
Width: 1000
VWidth: 0
HStem: 308 82<214.641 316.728>
VStem: 729 68<638.291 754.432>
LayerCount: 2
Back
Fore
SplineSet
729 772 m 0
 738 801 784 779 797 741 c 0
 803 722 802 688 796 663 c 0
 778 586 702 352 678 300 c 0
 658 255 648 221 627 116 c 0
 613 46 608 32 592 20 c 0
 520 -33 513 81 577 278 c 0
 586 306 579 309 506 305 c 0
 426 300 423 298 380 213 c 0
 333 121 258 47 228 65 c 0
 201 81 206 97 270 191 c 0
 333 283 333 308 272 308 c 0
 230 308 194 337 194 372 c 0
 194 389 214 394 270 390 c 0
 358 384 362 387 381 469 c 0
 396 536 385 578 362 541 c 0
 351 524 341 526 312 552 c 2
 275 584 l 1
 313 613 l 2
 354 645 409 651 448 627 c 0
 467 615 473 583 471 501 c 2
 468 392 l 1
 539 392 l 2
 605 392 611 396 642 463 c 0
 660 501 676 542 676 551 c 0
 677 561 681 571 689 577 c 0
 696 582 706 624 712 669 c 0
 718 714 726 761 729 772 c 0
EndSplineSet
Validated: 33
EndChar

StartChar: I
Encoding: 73 73 18
Width: 1000
VWidth: 0
LayerCount: 2
Back
Fore
SplineSet
820 784 m 0
 961 801 961 800 955 740 c 0
 951 694 944 684 916 680 c 0
 898 678 881 683 881 692 c 0
 881 709 774 710 714 694 c 0
 664 681 594 569 559 445 c 0
 544 391 521 312 509 269 c 2
 486 191 l 1
 523 191 l 2
 543 191 560 198 560 205 c 0
 560 223 716 238 733 222 c 0
 753 203 715 182 580 134 c 0
 511 110 442 83 427 75 c 0
 350 34 218 -1 202 15 c 0
 189 27 193 37 216 52 c 0
 233 63 253 78 261 84 c 0
 270 91 297 105 323 118 c 0
 401 155 420 193 482 417 c 0
 499 479 514 554 514 583 c 0
 514 643 534 641 323 596 c 0
 112 551 64 545 50 558 c 0
 33 575 78 616 121 624 c 0
 308 657 500 699 537 714 c 0
 563 725 616 737 659 743 c 0
 702 749 742 759 751 766 c 0
 759 772 791 780 820 784 c 0
EndSplineSet
Validated: 33
EndChar

StartChar: J
Encoding: 74 74 19
Width: 1000
VWidth: 0
HStem: 13 93<284.812 369.652> 595 65<365.939 470.129>
LayerCount: 2
Back
Fore
SplineSet
669 731 m 0
 860 773 950 780 941 752 c 0
 938 742 896 716 849 696 c 0
 764 660 726 626 725 588 c 0
 724 544 585 260 517 163 c 0
 429 36 400 13 327 13 c 0
 256 13 225 31 187 96 c 0
 144 170 146 265 192 314 c 0
 234 359 242 361 280 332 c 0
 309 310 309 309 270 270 c 0
 248 248 229 219 229 206 c 0
 229 173 295 106 327 106 c 0
 382 106 486 251 592 474 c 0
 662 621 666 656 618 641 c 0
 552 621 440 597 404 595 c 0
 376 593 367 602 363 631 c 0
 360 653 362 666 368 660 c 0
 374 654 406 660 441 672 c 0
 476 684 579 711 669 731 c 0
EndSplineSet
Validated: 33
EndChar

StartChar: K
Encoding: 75 75 20
Width: 1000
VWidth: 0
VStem: 285 60<457.651 700.778> 668 66<7.42065 157.535>
LayerCount: 2
Back
Fore
SplineSet
795 748 m 0
 816 785 825 795 842 793 c 0
 871 789 873 752 845 712 c 0
 790 632 672 536 552 477 c 0
 448 426 450 430 503 405 c 0
 568 375 650 299 672 250 c 0
 682 228 692 207 695 205 c 0
 714 187 734 122 734 74 c 0
 734 28 731 17 714 8 c 0
 684 -8 668 12 668 65 c 0
 668 131 618 236 563 289 c 0
 469 379 453 390 398 402 c 0
 348 413 343 412 325 393 c 0
 314 382 308 373 311 373 c 0
 314 373 313 369 309 362 c 0
 305 355 301 348 301 345 c 0
 298 321 273 242 268 242 c 0
 253 242 200 120 196 75 c 0
 192 33 170 9 147 23 c 0
 113 44 127 113 184 205 c 0
 210 247 262 381 273 434 c 0
 276 449 282 501 285 549 c 0
 290 624 288 635 275 635 c 0
 252 635 246 671 265 692 c 0
 285 714 309 715 329 696 c 0
 341 684 345 659 345 569 c 2
 345 457 l 1
 381 463 l 2
 445 474 513 505 593 556 c 0
 717 636 732 648 744 676 c 0
 750 690 758 701 762 701 c 0
 766 701 781 722 795 748 c 0
EndSplineSet
Validated: 33
EndChar

StartChar: L
Encoding: 76 76 21
Width: 1000
VWidth: 0
LayerCount: 2
Back
Fore
SplineSet
441 727 m 0
 556 849 584 799 490 639 c 0
 429 534 317 255 331 242 c 0
 336 238 383 223 434 210 c 0
 485 197 562 169 602 147 c 0
 695 97 755 93 755 138 c 0
 755 182 781 193 813 162 c 0
 856 121 848 42 798 24 c 0
 750 7 573 55 494 108 c 0
 468 125 414 142 373 146 c 0
 303 152 298 149 280 103 c 0
 258 46 218 27 181 56 c 0
 143 86 149 147 194 175 c 0
 218 190 242 229 253 271 c 0
 264 311 290 392 314 456 c 0
 338 520 362 591 368 616 c 0
 374 641 407 691 441 727 c 0
EndSplineSet
Validated: 33
EndChar

StartChar: M
Encoding: 77 77 22
Width: 1000
VWidth: 0
LayerCount: 2
Back
Fore
SplineSet
746 779 m 0
 782 798 782 798 818 769 c 0
 845 748 849 727 855 593 c 0
 859 509 857 441 852 441 c 0
 847 441 839 412 834 374 c 0
 820 268 699 108 641 118 c 0
 601 125 602 148 647 191 c 0
 695 237 732 299 744 355 c 0
 771 477 787 693 770 703 c 0
 758 710 639 571 602 506 c 0
 592 489 571 460 553 441 c 0
 535 422 511 395 499 380 c 0
 471 345 431 365 409 426 c 0
 395 467 393 468 371 443 c 0
 359 429 351 414 355 410 c 0
 365 400 313 296 182 59 c 0
 147 -5 99 -12 99 47 c 0
 99 100 137 212 195 330 c 0
 222 384 244 432 244 436 c 0
 244 440 257 459 273 479 c 0
 299 511 304 579 286 618 c 0
 265 663 300 694 387 707 c 0
 436 715 448 712 456 692 c 0
 461 678 458 658 450 645 c 0
 440 629 439 603 449 562 c 0
 468 482 483 470 509 517 c 0
 521 539 544 568 561 582 c 0
 578 597 592 613 592 620 c 0
 592 626 604 643 617 657 c 0
 631 672 659 700 680 723 c 0
 701 746 730 771 746 779 c 0
EndSplineSet
Validated: 33
EndChar

StartChar: N
Encoding: 78 78 23
Width: 1000
VWidth: 0
HStem: 11 21G<70.5 87> 94 482<345 480>
VStem: 61 76<35.0598 124.815>
LayerCount: 2
Back
Fore
SplineSet
846 782 m 0
 895 830 952 747 952 627 c 0
 952 554 852 352 779 280 c 0
 604 106 586 94 480 94 c 0
 386 94 378 97 346 149 c 0
 307 213 305 290 339 371 c 0
 372 449 350 480 313 408 c 0
 297 377 254 300 217 235 c 0
 180 170 144 100 137 77 c 0
 124 37 100 12 74 11 c 0
 67 11 61 40 61 77 c 0
 61 142 75 183 155 351 c 0
 177 397 195 450 195 469 c 0
 195 487 202 510 210 518 c 0
 218 527 237 570 253 613 c 0
 277 678 290 692 324 692 c 0
 359 692 363 687 348 660 c 0
 327 622 325 576 345 576 c 0
 352 576 383 609 412 649 c 0
 466 724 532 747 531 692 c 0
 531 664 495 561 476 531 c 0
 438 473 397 305 407 252 c 0
 421 180 432 173 513 186 c 0
 572 196 688 285 742 363 c 0
 781 419 801 452 810 476 c 0
 815 490 826 513 834 528 c 0
 861 578 872 671 853 683 c 0
 833 695 828 764 846 782 c 0
EndSplineSet
Validated: 33
EndChar

StartChar: O
Encoding: 79 79 24
Width: 1000
VWidth: 0
HStem: 767 20G<636 659>
LayerCount: 2
Back
Fore
SplineSet
556 734 m 0
 590 763 629 787 643 787 c 0
 675 787 680 741 650 724 c 0
 637 717 656 692 697 660 c 0
 734 631 764 593 764 574 c 0
 764 555 773 539 785 539 c 0
 803 539 800 425 778 301 c 0
 769 251 636 117 559 81 c 0
 475 41 363 25 308 44 c 0
 264 59 223 144 211 239 c 0
 205 286 240 401 286 484 c 0
 313 533 460 681 482 681 c 0
 489 681 522 705 556 734 c 0
675 553 m 0
 645 588 604 621 585 624 c 0
 540 630 334 431 334 382 c 0
 334 363 326 342 316 336 c 0
 306 330 297 291 297 249 c 0
 297 119 363 97 544 165 c 0
 616 192 704 314 718 408 c 0
 729 479 724 495 675 553 c 0
EndSplineSet
Validated: 33
EndChar

StartChar: P
Encoding: 80 80 25
Width: 1000
VWidth: 0
HStem: 459.21 36.7949<435.84 576.097> 741.972 36.0547<602.36 717.192>
LayerCount: 2
Back
Fore
SplineSet
576.168945312 459.209960938 m 1
 525.1171875 460.385742188 441.741210938 464.18359375 404.146484375 492.21484375 c 1
 401.779296875 493.229492188 393.063476562 496.51953125 385.845703125 498.06640625 c 0
 366.776367188 501.880859375 359.686523438 499.255859375 353.853515625 488.561523438 c 0
 353.431640625 487.755859375 353.69140625 488.283203125 352.838867188 486.53515625 c 1
 358.129882812 485.08984375 364.33984375 483.5078125 371.240234375 481.915039062 c 0
 466.514648438 459.204101562 524 450.809570312 576.168945312 459.209960938 c 1
600.869140625 759.653320312 m 1
 612.623046875 758.171875 625.154296875 754.833007812 640.83203125 749.748046875 c 0
 673.607421875 738.823242188 709.8828125 722.8828125 746.072265625 680.323242188 c 0
 774.540039062 646.842773438 776.874023438 625.813476562 774.360351562 602.419921875 c 1
 780.213867188 622.08203125 782.051757812 642.568359375 779.022460938 661.083007812 c 0
 775.321289062 683.28515625 764.133789062 705.081054688 759.865234375 710.4609375 c 1
 753.4296875 717.502929688 725.181640625 741.140625 713.540039062 741.971679688 c 1
 708.369140625 741.973632812 696.09375 746.2734375 684.85546875 750.358398438 c 0
 667.536132812 756.854492188 632.629882812 760.41015625 600.869140625 759.653320312 c 1
232.150390625 182.462890625 m 1
 219.955078125 152.431640625 205.682617188 85.1337890625 203.111328125 46.6728515625 c 1
 205.90234375 51.650390625 210.745117188 62.6875 215.063476562 75.25 c 0
 222.28125 96.009765625 227.776367188 117.4296875 227.328125 122.928710938 c 1
 224.123046875 131.787109375 226.046875 148.903320312 232.150390625 182.462890625 c 1
305.759765625 561.643554688 m 1
 301.706054688 539.83203125 297.587890625 514.51171875 294.004882812 489.047851562 c 0
 291.999023438 470.994140625 285.979492188 442.90234375 281.97265625 426.870117188 c 0
 278.840820312 414.34375 274.4375 388.682617188 271.75 364.19140625 c 1
 274.436523438 377.310546875 276.661132812 388.642578125 278.002929688 396.026367188 c 0
 282.006835938 418.030273438 289.004882812 456.033203125 294.009765625 481.055664062 c 0
 297.590820312 501.197265625 300.79296875 521.495117188 303.301757812 540.862304688 c 0
 304.1953125 547.7578125 305.03515625 554.8515625 305.759765625 561.643554688 c 1
342.572265625 535.6015625 m 1
 346.029296875 535.326171875 350.028320312 534.759765625 354.120117188 533.94140625 c 1
 367.876953125 530.9921875 378.506835938 527.37109375 392.056640625 517.125976562 c 1
 422.013671875 506.108398438 532.411132812 491.731445312 564.03125 496.004882812 c 0
 600.651367188 501.471679688 639.008789062 517.255859375 669.806640625 537.822265625 c 0
 694.864257812 554.5546875 714.9453125 574.487304688 725.127929688 594.41015625 c 0
 745.73828125 635.038085938 736.306640625 674.103515625 726.532226562 686.686523438 c 1
 720.702148438 691.640625 699.131835938 704.9296875 671.133789062 714.26171875 c 1
 634.834960938 726.03515625 623.056640625 727.0078125 581.010742188 720.002929688 c 0
 529.198242188 711.034179688 485.368164062 695.094726562 447.5234375 670.193359375 c 0
 435.784179688 662.372070312 428.791015625 658.4765625 421.692382812 659.931640625 c 1
 413.211914062 655.572265625 384.475585938 631.12109375 363.677734375 610.322265625 c 0
 353.887695312 600.533203125 345.029296875 583.296875 345.029296875 573.321289062 c 1
 344.704101562 561.650390625 343.841796875 548.911132812 342.572265625 535.6015625 c 1
335.063476562 477.27734375 m 1
 333.489257812 467.219726562 331.766601562 456.940429688 329.989257812 446.944335938 c 0
 324.993164062 421.969726562 317.995117188 383.966796875 313.994140625 361.975585938 c 0
 309.985351562 339.920898438 298.985351562 286.924804688 288.9765625 244.888671875 c 0
 266.497070312 150.072265625 260.84375 99.1416015625 262.309570312 94.19921875 c 1
 266.671875 81.2880859375 259.079101562 64.1640625 250.939453125 40.7490234375 c 0
 239.90625 8.6572265625 232.358398438 -3.0263671875 219.640625 -3.0263671875 c 0
 216.971679688 -3.02734375 215.053710938 -9.1455078125 193.344726562 10.5634765625 c 0
 159.38671875 41.392578125 167.758789062 52.6875 166.985351562 62.3564453125 c 0
 163.8671875 95.6259765625 184.853515625 196.891601562 200.151367188 225.453125 c 0
 203.278320312 231.012695312 205.776367188 236.2890625 207.841796875 242.462890625 c 0
 211.673828125 253.920898438 214.033203125 268.5390625 215.979492188 293.826171875 c 0
 217.014648438 307.290039062 220.619140625 320.231445312 224.477539062 322.802734375 c 0
 224.868164062 323.063476562 226.80859375 327.813476562 228.301757812 334.87890625 c 0
 230.541992188 345.477539062 232.791992188 361.6328125 233.9765625 378.809570312 c 0
 235.989257812 407.984375 241.987304688 444.970703125 246.026367188 461.130859375 c 0
 250.013671875 477.083984375 256.000976562 505.046875 257.987304688 522.926757812 c 1
 267.01953125 587.1328125 278.87890625 647.940429688 286.1484375 661.443359375 c 0
 302.603515625 691.270507812 440.338867188 767.8203125 513.819335938 788.9609375 c 0
 549.408203125 799.125976562 620.374023438 798.681640625 655.192382812 785.623046875 c 1
 665.841796875 781.751953125 677.6484375 778.028320312 680.462890625 778.026367188 c 1
 697.038085938 776.84375 742.5703125 746.189453125 777.9453125 705.762695312 c 0
 804.634765625 675.259765625 811.0546875 652.45703125 814.978515625 628.916992188 c 0
 824.271484375 572.12109375 791.931640625 507.435546875 742.469726562 478.161132812 c 0
 626.482421875 410.166992188 575.069335938 405.01171875 402.758789062 446.086914062 c 0
 378.365234375 451.715820312 363.651367188 450.24609375 335.063476562 477.27734375 c 1
EndSplineSet
Validated: 524321
EndChar

StartChar: Q
Encoding: 81 81 26
Width: 1000
VWidth: 0
LayerCount: 2
Back
Fore
SplineSet
575 718 m 0
 613 746 656 769 672 769 c 0
 707 769 714 725 681 709 c 0
 667 702 687 678 733 647 c 0
 775 619 808 582 808 564 c 0
 808 545 818 531 831 531 c 0
 846 531 849 499 841 435 c 0
 821 278 818 268 751 210 c 0
 687 154 686 151 715 95 c 0
 732 63 745 31 745 22 c 0
 745 -9 682 8 649 49 c 0
 623 81 602 90 570 82 c 0
 347 26 260 40 221 137 c 0
 172 258 185 340 274 479 c 0
 304 526 468 667 493 667 c 0
 501 667 537 690 575 718 c 0
702 553 m 0
 666 589 623 616 603 616 c 0
 553 616 328 423 328 381 c 0
 328 362 318 343 307 337 c 0
 295 331 286 295 286 254 c 0
 286 156 333 122 441 142 c 0
 541 161 548 168 519 220 c 0
 472 303 509 320 593 256 c 2
 643 218 l 1
 684 260 l 2
 727 305 766 399 766 455 c 0
 766 474 738 517 702 553 c 0
EndSplineSet
Validated: 33
EndChar

StartChar: R
Encoding: 82 82 27
Width: 1000
VWidth: 0
HStem: 46 65<714.375 765.718>
LayerCount: 2
Back
Fore
SplineSet
363 738 m 2
 423 792 l 1
 544 784 l 2
 635 779 683 768 733 741 c 0
 848 679 822 600 650 492 c 2
 540 423 l 1
 572 379 l 2
 590 354 630 284 662 222 c 0
 694 160 726 110 735 111 c 0
 801 117 812 82 756 46 c 0
 692 5 668 17 612 121 c 0
 429 459 412 470 353 286 c 0
 282 64 266 31 219 25 c 0
 178 20 177 23 186 76 c 0
 191 106 203 194 212 269 c 0
 255 624 264 649 363 738 c 2
650 693 m 0
 586 717 452 725 423 706 c 0
 413 700 389 670 369 640 c 2
 333 585 l 1
 366 563 l 2
 385 551 399 533 399 521 c 0
 399 491 432 487 509 508 c 0
 584 528 713 618 713 651 c 0
 713 661 684 680 650 693 c 0
EndSplineSet
Validated: 33
EndChar

StartChar: S
Encoding: 83 83 28
Width: 1000
VWidth: 0
LayerCount: 2
Back
Fore
SplineSet
371 746 m 0
 431 768 707 772 778 752 c 0
 824 739 874 683 855 664 c 0
 850 659 802 667 750 683 c 0
 690 701 624 708 572 701 c 0
 491 690 490 688 522 652 c 0
 541 631 563 614 573 614 c 0
 607 614 778 453 800 401 c 0
 842 300 697 115 532 59 c 0
 380 7 209 62 152 181 c 0
 124 241 123 251 152 295 c 0
 185 345 248 347 229 297 c 0
 214 258 294 139 344 126 c 0
 434 102 492 117 582 184 c 0
 738 300 759 356 680 445 c 0
 638 493 607 512 419 613 c 0
 311 671 295 718 371 746 c 0
EndSplineSet
Validated: 33
EndChar

StartChar: T
Encoding: 84 84 29
Width: 1000
VWidth: 0
HStem: 637 57<831.506 917.784> 681 79<167.085 481.066>
LayerCount: 2
Back
Fore
SplineSet
335 760 m 0x40
 588 770 777 747 880 694 c 0
 934 666 938 661 914 641 c 0
 892 623 867 622 785 637 c 0x80
 604 670 604 670 583 607 c 0
 572 575 554 517 542 476 c 0
 530 435 511 387 499 369 c 0
 487 351 478 329 478 318 c 0
 478 295 443 217 383 105 c 0
 338 21 289 -8 263 33 c 0
 243 65 244 71 283 115 c 0
 322 160 446 418 477 518 c 0
 488 554 495 606 492 633 c 2
 486 681 l 1
 338 681 l 2
 182 681 145 692 160 731 c 0
 167 748 210 755 335 760 c 0x40
EndSplineSet
Validated: 33
EndChar

StartChar: U
Encoding: 85 85 30
Width: 1000
VWidth: 0
LayerCount: 2
Back
Fore
SplineSet
401 723 m 0
 436 762 486 768 485 733 c 0
 484 695 408 541 357 475 c 0
 301 403 244 266 244 204 c 0
 244 145 313 98 397 98 c 0
 447 98 477 118 552 199 c 0
 690 348 750 477 742 613 c 0
 736 725 752 750 806 717 c 0
 843 694 844 499 808 427 c 0
 695 204 560 44 471 28 c 0
 226 -17 104 110 172 336 c 0
 200 427 324 637 401 723 c 0
EndSplineSet
Validated: 33
EndChar

StartChar: V
Encoding: 86 86 31
Width: 1000
VWidth: 0
VStem: 187 262<308 504> 673 75<670.527 751.257>
LayerCount: 2
Back
Fore
SplineSet
673 720 m 0
 706 774 720 781 747 757 c 0
 775 732 775 715 748 643 c 0
 730 596 703 490 688 408 c 0
 659 251 579 99 499 45 c 0
 429 -2 362 102 342 290 c 0
 322 475 300 522 252 479 c 0
 220 450 187 463 187 504 c 0
 187 548 308 659 340 646 c 0
 376 631 448 406 449 308 c 0
 451 117 577 272 611 506 c 0
 623 586 651 684 673 720 c 0
EndSplineSet
Validated: 33
EndChar

StartChar: W
Encoding: 87 87 32
Width: 1000
VWidth: 0
LayerCount: 2
Back
Fore
SplineSet
937 772 m 0
 940 783 954 786 968 781 c 0
 990 772 992 758 983 677 c 0
 972 572 911 443 827 344 c 0
 799 311 775 278 775 271 c 0
 774 242 684 159 614 121 c 0
 518 70 458 59 405 87 c 0
 329 127 313 205 355 326 c 0
 368 363 374 397 370 401 c 0
 356 416 286 325 277 280 c 0
 272 254 261 234 253 234 c 0
 245 234 229 211 218 183 c 0
 207 155 184 117 167 97 c 0
 150 77 127 47 115 29 c 0
 99 5 84 -1 60 7 c 0
 31 16 25 30 23 106 c 0
 19 248 33 314 112 537 c 0
 143 624 222 748 240 737 c 0
 266 721 258 677 208 565 c 0
 123 376 81 222 100 170 c 0
 112 138 116 142 161 216 c 0
 187 259 210 301 210 309 c 0
 210 338 409 531 431 523 c 0
 463 511 459 464 410 258 c 0
 398 208 401 195 425 171 c 0
 451 144 456 144 507 165 c 0
 538 178 565 187 569 187 c 0
 574 187 582 187 589 187 c 0
 600 187 658 232 702 276 c 0
 794 367 907 576 922 683 c 0
 927 722 934 761 937 772 c 0
EndSplineSet
Validated: 33
EndChar

StartChar: X
Encoding: 88 88 33
Width: 1000
VWidth: 0
VStem: 665 92<604.984 701.642>
LayerCount: 2
Back
Fore
SplineSet
253 713 m 0
 271 738 338 735 338 709 c 0
 338 698 353 675 370 660 c 0
 387 644 423 588 450 533 c 0
 477 478 507 426 518 415 c 0
 538 395 665 616 665 671 c 0
 665 690 688 709 718 716 c 0
 766 727 770 722 757 652 c 0
 749 609 710 516 667 441 c 0
 624 366 590 291 590 271 c 0
 590 251 625 201 666 162 c 0
 808 26 737 -27 590 105 c 2
 504 182 l 1
 414 105 l 2
 364 62 310 28 293 28 c 0
 240 28 260 111 323 154 c 0
 354 175 396 217 413 246 c 0
 444 298 433 329 274 632 c 0
 256 667 246 703 253 713 c 0
EndSplineSet
Validated: 33
EndChar

StartChar: Y
Encoding: 89 89 34
Width: 1000
VWidth: 0
HStem: 16 21G<346 370.5>
LayerCount: 2
Back
Fore
SplineSet
676 726 m 0
 698 768 716 784 735 777 c 0
 780 761 767 686 703 590 c 0
 646 504 570 368 478 186 c 0
 404 40 387 16 354 16 c 0
 338 16 320 24 317 33 c 0
 313 42 358 137 417 244 c 0
 476 351 522 440 519 443 c 0
 516 446 491 436 466 421 c 0
 410 388 338 400 310 447 c 0
 296 472 298 503 322 576 c 0
 340 629 360 673 368 673 c 0
 376 673 383 690 383 713 c 0
 383 739 393 754 410 754 c 0
 457 754 460 710 421 601 c 0
 376 475 376 478 421 478 c 0
 499 478 594 570 676 726 c 0
EndSplineSet
Validated: 33
EndChar

StartChar: Z
Encoding: 90 90 35
Width: 1000
VWidth: 0
HStem: 66 74<590.492 839.625> 433 50<719.309 766.222> 747 13<138.544 142>
VStem: 529 106<554.937 600.326>
LayerCount: 2
Back
Fore
SplineSet
174 760 m 0
 191 763 221 760 242 754 c 0
 316 733 417 709 454 703 c 0
 475 700 521 692 559 686 c 0
 597 680 635 674 643 673 c 0
 687 668 723 645 730 618 c 0
 737 591 732 588 687 597 c 0
 648 605 635 601 635 584 c 0
 635 562 736 483 765 483 c 0
 791 483 783 440 756 433 c 0
 721 424 637 460 626 490 c 0
 621 502 610 513 602 513 c 0
 577 513 429 355 419 317 c 0
 399 240 483 181 671 140 c 0
 753 122 765 124 818 151 c 0
 880 183 907 177 907 133 c 0
 907 60 760 26 618 66 c 0
 514 95 337 184 306 223 c 0
 272 266 288 295 409 423 c 0
 475 493 529 557 529 565 c 0
 528 605 493 619 310 656 c 0
 110 697 34 731 107 747 c 0
 127 751 158 757 174 760 c 0
EndSplineSet
Validated: 33
EndChar

StartChar: a
Encoding: 97 97 36
Width: 878
VWidth: 0
Flags: W
HStem: 259 43<435.182 552.992> 289 26<645.741 795.095>
VStem: 553 47<206.953 265.715>
LayerCount: 2
Fore
SplineSet
615 575 m 0xa0
 653 595 663 596 679 580 c 0
 701 558 694 504 655 410 c 0
 635 361 617 320 617 320 c 0
 617 320 656 321 704 323 c 0
 758 325 796 322 803 315 c 0
 819 299 813 296 741 289 c 0x60
 706 286 667 281 655 278 c 0
 643 275 625 273 614 272 c 0
 601 271 596 265 600 255 c 0
 603 246 600 239 595 239 c 0
 589 239 585 233 585 225 c 0
 585 218 567 176 546 132 c 0
 525 88 502 41 496 28 c 0
 473 -22 456 19 478 71 c 0
 501 127 553 262 553 267 c 0
 553 270 542 269 529 265 c 0
 516 261 485 259 459 259 c 0
 406 260 400 255 312 141 c 0
 258 71 243 56 228 56 c 0
 211 56 222 107 245 133 c 0
 258 148 276 171 284 185 c 0
 298 209 297 213 271 233 c 0
 226 269 238 292 302 292 c 0
 328 292 403 358 403 380 c 0
 403 385 418 412 436 442 c 0
 472 501 505 527 524 508 c 0
 531 501 544 508 561 529 c 0
 575 546 599 567 615 575 c 0xa0
649 505 m 0
 662 555 661 559 641 552 c 0
 626 547 435 318 435 305 c 0
 435 301 464 300 499 302 c 2xa0
 564 305 l 1
 601 382 l 2
 621 424 643 480 649 505 c 0
516 464 m 0
 527 476 530 485 524 485 c 0
 510 485 484 455 491 448 c 0
 494 445 505 452 516 464 c 0
EndSplineSet
Validated: 33
EndChar

StartChar: b
Encoding: 98 98 37
Width: 881
VWidth: 0
Flags: W
LayerCount: 2
Fore
SplineSet
688 565 m 0
 816 656 802 512 670 382 c 0
 611 323 604 307 639 307 c 0
 649 307 670 291 684 272 c 0
 721 223 714 165 664 103 c 0
 600 25 523 -1 415 22 c 0
 378 30 346 41 342 48 c 0
 337 56 328 51 314 33 c 0
 292 5 273 7 273 37 c 0
 273 60 328 147 347 154 c 0
 355 157 359 162 357 166 c 0
 355 170 370 196 392 225 c 0
 414 254 431 281 431 286 c 0
 431 291 436 300 443 304 c 0
 450 308 475 338 498 369 c 0
 553 444 634 526 688 565 c 0
725 508 m 0
 748 558 745 564 713 540 c 0
 613 465 590 442 553 378 c 0
 539 353 522 328 516 324 c 0
 497 311 519 317 555 334 c 0
 574 343 589 355 589 359 c 0
 589 363 594 367 600 367 c 0
 621 367 703 459 725 508 c 0
645 262 m 0
 620 279 536 281 500 264 c 0
 471 250 441 218 441 201 c 0
 441 194 438 188 434 186 c 0
 430 184 415 167 403 149 c 2
 381 117 l 1
 403 119 l 2
 444 123 471 118 471 108 c 0
 471 102 468 99 463 100 c 0
 449 104 381 77 386 69 c 0
 396 53 524 57 560 74 c 0
 662 123 705 220 645 262 c 0
EndSplineSet
Validated: 33
EndChar

StartChar: c
Encoding: 99 99 38
Width: 878
VWidth: -1
Flags: W
VStem: 246 343<48 140>
LayerCount: 2
Fore
SplineSet
654 564 m 0
 756 596 819 521 748 452 c 0
 731 435 722 426 729 430 c 0
 736 434 744 431 747 422 c 0
 754 402 697 348 668 348 c 0
 629 348 640 392 695 452 c 0
 750 512 748 529 686 529 c 0
 639 529 534 462 412 356 c 0
 314 271 259 157 291 105 c 0
 313 69 523 35 555 62 c 0
 571 76 589 69 589 48 c 0
 589 21 550 12 461 17 c 0
 413 20 368 23 360 26 c 0
 328 36 307 49 278 72 c 0
 251 94 246 103 246 140 c 0
 246 227 337 364 441 432 c 0
 457 443 472 454 475 457 c 0
 494 479 618 553 654 564 c 0
EndSplineSet
Validated: 33
EndChar

StartChar: d
Encoding: 100 100 39
Width: 878
VWidth: 0
Flags: W
VStem: 204 86<52.6213 142.375>
LayerCount: 2
Fore
SplineSet
485 562 m 0
 579 609 681 560 768 426 c 0
 818 349 824 331 826 257 c 0
 828 183 825 170 795 138 c 0
 735 73 695 56 596 48 c 0
 508 41 494 44 416 80 c 0
 370 102 327 126 322 134 c 0
 310 153 290 139 290 112 c 0
 290 72 242 5 219 14 c 0
 203 20 199 36 204 84 c 0
 207 118 213 152 218 160 c 0
 223 168 228 184 231 197 c 0
 254 314 290 408 312 408 c 0
 321 408 328 414 328 420 c 0
 328 441 432 536 485 562 c 0
601 491 m 0
 544 520 510 516 448 472 c 0
 406 442 389 417 368 359 c 0
 353 317 336 274 329 262 c 0
 308 226 314 194 344 175 c 0
 361 164 376 155 380 154 c 0
 384 153 402 146 421 138 c 0
 476 115 586 99 594 112 c 0
 598 118 611 121 623 118 c 0
 665 109 742 159 763 210 c 0
 781 253 780 261 761 294 c 0
 750 314 743 330 747 330 c 0
 758 330 705 408 670 442 c 0
 654 457 623 480 601 491 c 0
EndSplineSet
Validated: 33
EndChar

StartChar: e
Encoding: 101 101 40
Width: 874
VWidth: 0
Flags: W
HStem: 334 54<471.159 626.115> 541 50<431 530.383>
LayerCount: 2
Fore
SplineSet
426 583 m 0
 426 587 429 591 433 591 c 0
 451 591 589 556 597 549 c 0
 602 545 641 536 683 530 c 0
 725 524 761 517 764 514 c 0
 791 487 657 491 574 519 c 0
 538 531 504 541 498 541 c 0
 491 541 484 521 478 481 c 0
 473 448 467 415 464 408 c 0
 461 401 463 391 467 384 c 0
 478 367 596 370 639 388 c 0
 672 402 690 397 664 381 c 0
 655 376 636 362 620 352 c 0
 597 337 580 334 534 334 c 0
 502 334 474 337 471 342 c 0
 459 362 444 346 406 272 c 0
 384 229 362 191 358 188 c 0
 348 182 349 135 359 134 c 0
 378 132 416 116 462 92 c 2
 494 76 l 1
 524 94 l 2
 541 104 560 118 565 125 c 0
 571 133 580 135 589 131 c 0
 602 126 601 121 574 98 c 0
 557 84 530 65 514 56 c 0
 486 40 485 40 449 56 c 0
 429 65 403 78 392 86 c 0
 380 94 366 101 359 102 c 0
 319 107 310 101 280 52 c 0
 250 2 240 -6 229 11 c 0
 221 24 232 56 255 83 c 0
 266 96 289 133 306 165 c 0
 323 197 343 232 351 243 c 0
 377 280 407 346 413 377 c 0
 416 394 421 409 425 410 c 0
 429 411 436 446 440 486 c 0
 446 543 444 560 436 567 c 0
 430 572 426 579 426 583 c 0
EndSplineSet
Validated: 33
EndChar

StartChar: f
Encoding: 102 102 41
Width: 881
VWidth: 0
Flags: W
HStem: 301 52<403.735 651.869> 535 20<808.385 852.783>
VStem: 369 80<395.883 467.477>
LayerCount: 2
Fore
SplineSet
674 587 m 0
 683 592 724 587 766 576 c 0
 808 565 846 555 851 555 c 0
 856 555 857 551 853 544 c 0
 849 538 805 533 753 535 c 0
 686 537 642 532 597 517 c 0
 484 480 449 463 449 446 c 0
 449 437 439 414 426 394 c 2
 403 359 l 1
 435 353 l 2
 467 347 590 352 617 361 c 0
 625 364 631 362 631 357 c 0
 631 352 659 356 694 365 c 0
 740 377 761 378 770 369 c 0
 804 336 635 302 435 301 c 0
 377 301 370 298 364 273 c 0
 360 258 353 245 347 245 c 0
 341 245 330 225 323 200 c 0
 311 156 257 61 222 21 c 0
 204 1 203 2 197 32 c 0
 193 50 197 71 204 80 c 0
 231 114 278 201 278 216 c 0
 278 225 284 234 290 236 c 0
 297 238 309 270 319 306 c 0
 329 342 344 384 353 397 c 0
 362 410 369 428 369 436 c 0
 369 458 404 522 416 522 c 0
 422 522 429 522 432 522 c 0
 435 522 464 531 497 544 c 0
 530 557 580 570 608 573 c 0
 635 576 665 583 674 587 c 0
EndSplineSet
Validated: 33
EndChar

StartChar: g
Encoding: 103 103 42
Width: 862
VWidth: -14
Flags: W
HStem: 42 67<332.24 358.857>
VStem: 468 95<-37 53> 468 55<-77.4146 10.0865>
LayerCount: 2
Fore
SplineSet
451 551 m 0xc0
 532 586 571 574 622 500 c 0
 646 466 650 368 629 355 c 0
 602 339 585 365 585 420 c 0
 585 462 581 476 561 491 c 0
 548 501 526 511 515 511 c 0
 486 512 409 466 382 433 c 0
 370 418 352 397 342 386 c 0
 291 332 271 154 314 141 c 0
 325 138 333 128 333 119 c 0
 333 111 338 106 344 109 c 0
 350 112 356 112 359 107 c 0
 369 92 473 93 506 109 c 0
 537 124 572 183 555 192 c 0
 533 204 408 209 388 199 c 0
 345 177 294 233 335 257 c 0
 359 271 574 256 653 234 c 0
 681 226 676 205 640 179 c 0
 619 164 609 150 612 137 c 0
 614 125 605 108 590 94 c 0
 576 81 563 62 563 53 c 0xc0
 563 44 556 26 548 15 c 0
 540 4 528 -22 523 -42 c 0xa0
 516 -68 506 -79 488 -82 c 0
 465 -85 464 -82 468 -37 c 0
 470 -11 475 14 479 18 c 0
 495 33 473 42 420 42 c 0
 309 42 238 102 227 204 c 0
 217 297 257 391 341 473 c 0
 389 520 408 533 451 551 c 0xc0
EndSplineSet
Validated: 33
EndChar

StartChar: h
Encoding: 104 104 43
Width: 874
VWidth: 0
Flags: W
HStem: 228 65<281.532 361.783 477.756 557.002>
VStem: 671 51<452.703 568.674>
LayerCount: 2
Fore
SplineSet
671 578 m 0
 678 600 713 584 722 555 c 0
 727 541 727 515 722 496 c 0
 708 438 651 263 633 224 c 0
 618 190 611 165 595 86 c 0
 584 33 580 23 568 14 c 0
 514 -25 509 60 557 208 c 0
 564 229 559 231 504 228 c 0
 444 224 442 223 410 159 c 0
 375 90 317 34 295 48 c 0
 275 60 279 73 327 143 c 0
 374 212 374 230 328 230 c 0
 296 230 270 252 270 278 c 0
 270 291 285 295 327 292 c 0
 393 287 396 289 410 351 c 0
 421 401 414 432 396 405 c 0
 388 392 380 394 358 413 c 2
 331 437 l 1
 359 459 l 2
 389 483 431 487 460 469 c 0
 474 460 479 436 478 375 c 2
 476 293 l 1
 528 293 l 2
 578 293 583 296 606 346 c 0
 619 375 631 405 631 412 c 0
 631 420 635 428 641 432 c 0
 646 436 655 467 659 501 c 0
 663 535 669 570 671 578 c 0
EndSplineSet
Validated: 33
EndChar

StartChar: i
Encoding: 105 105 44
Width: 875
VWidth: 0
Flags: W
LayerCount: 2
Fore
SplineSet
740 588 m 0
 846 601 846 601 842 556 c 0
 839 522 833 514 812 511 c 0
 798 509 786 513 786 519 c 0
 786 532 706 533 661 521 c 0
 623 511 570 427 544 334 c 0
 532 293 516 234 507 202 c 2
 490 144 l 1
 518 144 l 2
 533 144 545 149 545 154 c 0
 545 167 663 179 675 167 c 0
 690 153 661 137 560 101 c 0
 508 83 456 63 445 57 c 0
 388 26 289 0 277 12 c 0
 268 21 270 27 287 39 c 0
 300 48 315 58 321 63 c 0
 328 68 347 80 367 89 c 0
 425 117 440 145 487 313 c 0
 500 359 511 416 511 438 c 0
 511 483 525 482 367 448 c 0
 209 414 173 409 163 419 c 0
 150 431 184 463 216 469 c 0
 356 494 500 525 528 536 c 0
 547 544 588 554 620 558 c 0
 652 562 683 570 689 575 c 0
 695 580 718 585 740 588 c 0
EndSplineSet
Validated: 33
EndChar

StartChar: j
Encoding: 106 106 45
Width: 887
VWidth: -2
Flags: W
HStem: 7 70<343.631 419.713> 444 49<409.957 510.454>
LayerCount: 2
Fore
SplineSet
639 546 m 0
 782 578 850 583 843 562 c 0
 841 554 809 535 774 520 c 0
 710 493 682 467 681 439 c 0
 680 406 576 193 525 120 c 0
 459 25 437 7 382 7 c 0
 329 7 305 21 277 70 c 0
 245 126 247 196 281 233 c 0
 313 267 319 269 347 247 c 0
 369 231 369 229 340 200 c 0
 324 184 309 162 309 152 c 0
 309 127 358 77 382 77 c 0
 423 77 501 186 581 353 c 0
 633 463 637 489 601 478 c 0
 551 463 467 446 440 444 c 0
 419 442 412 449 409 471 c 0
 407 487 409 497 413 493 c 0
 417 489 442 493 468 502 c 0
 494 511 571 531 639 546 c 0
EndSplineSet
Validated: 33
EndChar

StartChar: k
Encoding: 107 107 46
Width: 874
VWidth: 0
Flags: W
VStem: 338 45<343.013 528.575> 625 50<5.32968 129.575>
LayerCount: 2
Fore
SplineSet
721 561 m 0
 737 589 744 596 756 594 c 0
 778 591 779 563 758 533 c 0
 717 473 628 402 538 357 c 0
 460 318 462 322 502 303 c 0
 550 280 612 224 628 187 c 0
 636 170 644 155 646 153 c 0
 661 140 675 91 675 55 c 0
 675 21 672 12 660 5 c 0
 637 -7 625 8 625 48 c 0
 625 97 588 176 546 216 c 0
 475 283 463 292 422 301 c 0
 384 309 382 308 368 294 c 0
 360 286 356 279 358 279 c 0
 360 279 359 276 356 271 c 0
 353 266 350 260 350 258 c 0
 348 240 329 181 325 181 c 0
 314 181 274 89 271 55 c 0
 268 23 251 6 234 17 c 0
 208 33 219 84 262 153 c 0
 282 185 321 285 329 325 c 0
 331 337 336 375 338 411 c 0
 342 467 341 476 331 476 c 0
 314 476 309 503 323 519 c 0
 338 535 356 536 371 522 c 0
 380 513 383 493 383 426 c 2
 383 342 l 1
 410 347 l 2
 458 356 509 377 569 416 c 0
 662 476 673 485 682 506 c 0
 686 517 693 525 696 525 c 0
 699 525 710 541 721 561 c 0
EndSplineSet
Validated: 33
EndChar

StartChar: l
Encoding: 108 108 47
Width: 874
VWidth: 1
Flags: W
LayerCount: 2
Fore
SplineSet
456 547 m 0
 542 638 562 601 492 481 c 0
 446 403 362 193 373 183 c 0
 377 180 411 170 450 160 c 0
 489 150 546 128 576 112 c 0
 645 74 691 72 691 105 c 0
 691 138 711 147 735 124 c 0
 767 93 760 33 723 20 c 0
 687 7 554 44 495 83 c 0
 476 96 436 108 405 111 c 0
 352 116 347 114 334 79 c 0
 317 36 287 22 260 44 c 0
 232 67 237 112 270 133 c 0
 288 144 306 173 314 205 c 0
 322 235 342 296 360 344 c 0
 378 392 396 445 401 464 c 0
 406 483 431 520 456 547 c 0
EndSplineSet
Validated: 33
EndChar

StartChar: m
Encoding: 109 109 48
Width: 869
VWidth: 0
Flags: W
LayerCount: 2
Fore
SplineSet
679 584 m 0
 706 598 706 599 733 577 c 0
 753 561 757 546 761 445 c 0
 764 382 763 331 759 331 c 0
 755 331 749 308 745 280 c 0
 735 201 644 80 600 88 c 0
 570 93 572 110 605 143 c 0
 641 178 668 224 677 266 c 0
 697 358 710 520 697 527 c 0
 688 532 599 429 571 380 c 0
 564 367 547 345 534 331 c 0
 521 317 503 296 494 285 c 0
 473 258 443 274 427 320 c 0
 416 350 415 351 398 332 c 0
 389 322 383 310 386 307 c 0
 393 300 354 222 256 44 c 0
 230 -4 193 -9 193 35 c 0
 193 75 222 159 266 247 c 0
 286 288 302 324 302 327 c 0
 302 330 312 344 324 359 c 0
 343 383 348 434 334 463 c 0
 318 497 345 520 410 530 c 0
 447 536 456 534 462 519 c 0
 466 509 463 493 457 483 c 0
 449 471 449 451 456 421 c 0
 470 361 482 353 501 388 c 0
 510 404 528 426 541 437 c 0
 554 448 563 460 563 465 c 0
 563 470 572 483 582 493 c 0
 593 504 614 525 630 542 c 0
 646 559 667 578 679 584 c 0
EndSplineSet
Validated: 33
EndChar

StartChar: n
Encoding: 110 110 49
Width: 876
VWidth: 0
Flags: W
HStem: 71 361<385 486>
VStem: 172 57<21.5505 105.16>
LayerCount: 2
Fore
SplineSet
761 587 m 0
 798 623 841 561 841 471 c 0
 841 416 765 265 711 211 c 0
 580 80 565 71 486 71 c 0
 415 71 410 74 386 113 c 0
 356 161 355 218 381 279 c 0
 406 338 389 361 361 307 c 0
 349 283 317 226 289 177 c 0
 261 128 234 76 229 59 c 0
 220 29 201 10 182 9 c 0
 176 9 172 32 172 59 c 0
 172 108 183 138 243 264 c 0
 260 299 273 338 273 352 c 0
 273 366 278 384 284 390 c 0
 290 396 305 429 317 461 c 0
 335 510 345 520 370 520 c 0
 396 520 398 516 387 496 c 0
 371 467 370 432 385 432 c 0
 391 432 413 457 435 487 c 0
 476 543 526 562 525 520 c 0
 525 499 498 421 484 399 c 0
 456 355 425 230 432 190 c 0
 442 136 451 130 512 140 c 0
 556 147 642 214 683 273 c 0
 712 315 727 340 734 358 c 0
 738 369 746 386 752 397 c 0
 772 434 780 504 766 513 c 0
 751 522 747 574 761 587 c 0
EndSplineSet
Validated: 33
EndChar

StartChar: o
Encoding: 111 111 50
Width: 875
VWidth: 2
Flags: W
HStem: 573 20G<602.5 620>
LayerCount: 2
Fore
SplineSet
543 553 m 0
 568 575 597 593 608 593 c 0
 632 593 635 559 613 546 c 0
 604 541 617 522 648 498 c 0
 676 476 699 447 699 433 c 0
 699 418 705 407 714 407 c 0
 728 407 726 321 709 228 c 0
 702 191 602 90 545 63 c 0
 482 33 398 21 357 36 c 0
 324 48 293 110 284 182 c 0
 280 217 306 304 340 366 c 0
 360 403 470 513 487 513 c 0
 492 513 518 531 543 553 c 0
632 418 m 0
 610 445 578 469 564 471 c 0
 530 476 376 326 376 289 c 0
 376 274 370 259 362 255 c 0
 354 251 348 222 348 190 c 0
 348 93 398 75 534 126 c 0
 588 146 654 239 665 309 c 0
 673 362 669 374 632 418 c 0
EndSplineSet
Validated: 33
EndChar

StartChar: p
Encoding: 112 112 51
Width: 872
VWidth: 0
Flags: W
HStem: 551.096 35.8057<603.824 661.638>
LayerCount: 2
Fore
SplineSet
461.325195312 351.015625 m 1
 449.716796875 353.650390625 450.598632812 348.80078125 429.338867188 364.607421875 c 1
 427.25 365.364257812 421.708007812 367.208007812 416.586914062 368.139648438 c 0
 404.881835938 370.479492188 399.0859375 368.166992188 396.575195312 364.828125 c 1
 421.243164062 358.899414062 442.42578125 354.287109375 461.325195312 351.015625 c 1
704.012695312 477.758789062 m 1
 704.537109375 485.28515625 704.275390625 492.931640625 703.133789062 499.619140625 c 0
 700.784179688 513.713867188 694.276367188 527.665039062 690.143554688 533.547851562 c 1
 687.818359375 535.774414062 670.071289062 550.381835938 662.9140625 551.095703125 c 1
 659.202148438 551.098632812 649.942382812 554.307617188 641.732421875 557.388671875 c 0
 633.044921875 560.646484375 619.071289062 563.137695312 603.075195312 564.348632812 c 5
 622.8359375 557.474609375 649.2421875 548.263671875 683.619140625 509.06640625 c 0
 696.884765625 493.940429688 701.021484375 485.219726562 704.012695312 477.758789062 c 1
384.62109375 403.662109375 m 1
 394.702148438 401.397460938 401.198242188 399.31640625 412.985351562 390.913085938 c 1
 436.009765625 382.646484375 518.038085938 371.495117188 541.788085938 374.889648438 c 0
 565.69140625 378.235351562 590.655273438 387.842773438 611.946289062 400.693359375 c 0
 634.825195312 414.501953125 653.485351562 432.081054688 662.1953125 449.50390625 c 0
 675.01171875 475.135742188 673.587890625 500.75390625 666.416992188 514.420898438 c 1
 657.008789062 520.30859375 645.62109375 525.5625 631.036132812 530.28125 c 0
 603.3984375 539.163085938 595.26171875 540.119140625 563.255859375 535.118164062 c 0
 524.362304688 528.135742188 490.487304688 516.1796875 462.577148438 497.2421875 c 0
 453.750976562 491.354492188 448.109375 487.201171875 443.4375 489.174804688 c 1
 436.671875 485.872070312 415.450195312 468.094726562 399.677734375 452.322265625 c 0
 392.821289062 445.465820312 385.90234375 432.280273438 385.903320312 424.959960938 c 1
 385.659179688 418.384765625 385.21484375 411.120117188 384.62109375 403.662109375 c 1
378.583984375 352.374023438 m 1
 377.450195312 344.887695312 376.163085938 336.993164062 374.885742188 329.754882812 c 0
 371.875976562 311.71484375 365.875976562 283.712890625 362.8828125 266.747070312 c 0
 359.87109375 249.680664062 350.875976562 209.719726562 343.872070312 177.6875 c 0
 326.932617188 104.96484375 321.829101562 69.0244140625 323.662109375 64.1396484375 c 1
 325.708984375 57.9912109375 321.977539062 41.97265625 315.845703125 24.6044921875 c 0
 307.815429688 0.505859375 301.016601562 -6.9033203125 292.008789062 -6.90234375 c 0
 274.517578125 -6.900390625 245.626953125 37.1240234375 244.10546875 50.814453125 c 1
 242.036132812 75.6630859375 258.036132812 151.194335938 269.198242188 172.499023438 c 0
 275.131835938 184.376953125 277.106445312 195.166015625 280.106445312 224.159179688 c 0
 281.116210938 234.267578125 282.971679688 243.458984375 286.368164062 245.721679688 c 1
 287.770507812 247.124023438 292.130859375 266.447265625 294.103515625 288.1484375 c 0
 296.110351562 310.21875 300.102539062 337.212890625 303.134765625 349.325195312 c 0
 306.115234375 361.254882812 310.12109375 382.299804688 312.107421875 396.194335938 c 0
 318.124023438 444.337890625 328.048828125 489.200195312 333.20703125 499.526367188 c 0
 345.500976562 522.05859375 448.318359375 579.765625 503.62890625 595.857421875 c 0
 530.040039062 603.98046875 584.392578125 602.317382812 610.263671875 592.615234375 c 0
 618.05859375 589.690429688 626.796875 586.90234375 629.08984375 586.901367188 c 1
 640.338867188 585.778320312 674.857421875 563.563476562 707.75390625 526.555664062 c 0
 711.658203125 522.163085938 702.284179688 532.544921875 706.36328125 528.094726562 c 0
 732.865234375 499.184570312 736.025390625 483.42578125 738.8671875 466.37890625 c 0
 746.078125 424.14453125 721.857421875 374.397460938 684.54296875 353.220703125 c 0
 670.98046875 345.26953125 658.602539062 338.45703125 646.875 332.735351562 c 0
 583.354492188 301.749023438 538.43359375 302.975585938 429.422851562 329.174804688 c 0
 411.098632812 333.403320312 402.81640625 331.004882812 378.583984375 352.374023438 c 1
EndSplineSet
Validated: 524325
EndChar

StartChar: q
Encoding: 113 113 52
Width: 879
VWidth: -3
Flags: W
LayerCount: 2
Fore
SplineSet
561 535 m 0
 589 556 622 573 634 573 c 0
 661 573 665 540 640 528 c 0
 629 523 645 505 679 482 c 0
 710 461 736 434 736 420 c 0
 736 406 743 395 753 395 c 0
 764 395 767 371 761 323 c 0
 746 205 743 198 693 154 c 0
 645 112 644 110 666 68 c 0
 679 44 689 19 689 13 c 0
 689 -11 642 3 617 33 c 0
 597 57 581 64 557 58 c 0
 390 16 326 26 296 99 c 0
 259 190 268 252 335 356 c 0
 358 392 480 497 499 497 c 0
 505 497 533 514 561 535 c 0
657 411 m 0
 630 438 597 459 582 459 c 0
 545 459 376 314 376 282 c 0
 376 268 369 253 360 249 c 0
 351 245 344 217 344 187 c 0
 344 113 379 88 460 103 c 0
 535 117 541 123 519 162 c 0
 484 224 512 237 575 189 c 2
 612 160 l 1
 642 192 l 2
 674 225 704 296 704 338 c 0
 704 352 684 384 657 411 c 0
EndSplineSet
Validated: 33
EndChar

StartChar: r
Encoding: 114 114 53
Width: 873
VWidth: 1
Flags: W
HStem: 36 49<655.418 698.915>
VStem: 263 125<153.688 215.29>
LayerCount: 2
Fore
SplineSet
395 556 m 2
 440 596 l 1
 531 590 l 2
 599 586 635 577 673 557 c 0
 759 510 740 452 611 371 c 2
 528 319 l 1
 552 286 l 2
 565 267 595 215 619 168 c 0
 643 121 667 84 674 85 c 0
 723 90 732 63 690 36 c 0
 642 5 624 15 582 93 c 0
 445 346 432 354 388 216 c 0
 335 49 322 25 287 21 c 0
 256 17 256 19 263 59 c 0
 267 82 275 147 282 203 c 0
 315 469 320 489 395 556 c 2
611 522 m 0
 563 540 462 545 440 531 c 0
 433 526 415 505 400 482 c 2
 373 441 l 1
 398 424 l 2
 412 415 422 402 422 393 c 0
 422 370 447 367 505 383 c 0
 561 398 658 467 658 491 c 0
 658 499 637 512 611 522 c 0
EndSplineSet
Validated: 33
EndChar

StartChar: s
Encoding: 115 115 54
Width: 873
VWidth: 0
Flags: W
LayerCount: 2
Fore
SplineSet
402 560 m 0
 447 577 655 580 708 565 c 0
 743 555 779 512 765 498 c 0
 761 494 726 501 687 513 c 0
 642 527 591 531 552 526 c 0
 491 518 491 516 515 489 c 0
 529 473 546 461 553 461 c 0
 578 461 708 340 724 301 c 0
 756 225 647 86 523 44 c 0
 409 5 281 47 238 136 c 0
 217 181 217 189 238 222 c 0
 262 260 309 260 295 223 c 0
 284 194 344 105 382 95 c 0
 450 77 492 87 560 138 c 0
 677 225 693 267 634 334 c 0
 602 370 579 385 438 461 c 0
 357 504 345 539 402 560 c 0
EndSplineSet
Validated: 33
EndChar

StartChar: t
Encoding: 116 116 55
Width: 885
VWidth: -2
Flags: W
HStem: 475 43<741.175 829.905> 508 59<256.252 496.697>
LayerCount: 2
Fore
SplineSet
387 567 m 0x40
 577 574 719 558 796 518 c 0
 837 497 839 493 821 478 c 0
 805 465 786 464 724 475 c 0x80
 589 499 589 500 573 453 c 0
 565 429 551 385 542 354 c 0
 533 323 519 287 510 274 c 0
 501 260 494 243 494 235 c 0
 494 218 468 160 423 76 c 0
 389 13 352 -9 333 22 c 0
 318 46 319 50 348 83 c 0
 378 117 471 311 494 386 c 0
 502 413 506 452 504 472 c 2
 500 508 l 1
 389 508 l 2
 272 508 245 516 256 545 c 0
 261 558 293 563 387 567 c 0x40
EndSplineSet
Validated: 33
EndChar

StartChar: u
Encoding: 117 117 56
Width: 873
VWidth: -3
Flags: W
LayerCount: 2
Fore
SplineSet
425 539 m 0
 451 568 488 572 487 546 c 0
 486 517 429 402 391 353 c 0
 349 299 307 197 307 150 c 0
 307 106 358 70 421 70 c 0
 459 70 481 85 538 146 c 0
 642 258 686 354 680 456 c 0
 675 540 687 560 728 535 c 0
 756 518 756 371 729 317 c 0
 644 150 544 30 477 18 c 0
 294 -15 201 80 252 249 c 0
 273 317 367 475 425 539 c 0
EndSplineSet
Validated: 33
EndChar

StartChar: v
Encoding: 118 118 57
Width: 869
VWidth: 0
Flags: W
VStem: 260 196<231 378>
LayerCount: 2
Fore
SplineSet
624 541 m 0
 649 582 660 587 680 569 c 0
 701 550 700 537 680 483 c 0
 667 448 647 369 635 307 c 0
 613 189 554 75 494 34 c 0
 442 -1 391 77 376 218 c 0
 361 357 344 393 308 360 c 0
 284 338 260 347 260 378 c 0
 260 411 350 495 374 485 c 0
 401 474 455 304 456 231 c 0
 457 88 553 204 578 380 c 0
 587 440 607 514 624 541 c 0
EndSplineSet
Validated: 33
EndChar

StartChar: w
Encoding: 119 119 58
Width: 876
VWidth: -1
Flags: W
LayerCount: 2
Fore
SplineSet
829 578 m 0
 831 586 842 589 852 585 c 0
 868 579 870 566 863 506 c 0
 854 427 810 330 747 256 c 0
 726 232 708 206 708 201 c 0
 707 179 639 117 586 89 c 0
 514 50 469 43 430 64 c 0
 373 94 360 152 392 243 c 0
 402 271 407 296 404 299 c 0
 393 310 341 242 334 208 c 0
 330 188 322 174 316 174 c 0
 310 174 299 157 290 136 c 0
 281 115 264 86 251 71 c 0
 238 56 221 34 212 20 c 0
 200 2 189 -2 171 4 c 0
 149 11 146 21 144 78 c 0
 141 184 151 234 210 401 c 0
 233 466 293 559 306 551 c 0
 326 539 320 506 282 422 c 0
 218 280 187 165 202 126 c 0
 211 102 213 104 247 160 c 0
 267 193 283 225 283 231 c 0
 283 253 434 396 450 390 c 0
 474 381 471 347 434 192 c 0
 425 155 427 145 445 127 c 0
 465 107 469 106 507 122 c 0
 530 131 550 139 553 139 c 0
 556 139 562 139 568 139 c 0
 576 139 620 172 653 205 c 0
 722 273 807 431 818 511 c 0
 822 540 827 570 829 578 c 0
EndSplineSet
Validated: 33
EndChar

StartChar: x
Encoding: 120 120 59
Width: 876
VWidth: -5
Flags: W
VStem: 316 65<492.083 536.104> 626 69<436.44 525.546>
LayerCount: 2
Fore
SplineSet
316 530 m 0
 330 549 381 546 381 526 c 0
 381 518 391 502 404 490 c 0
 417 478 444 436 464 395 c 0
 484 354 508 314 516 306 c 0
 531 291 626 457 626 498 c 0
 626 512 642 527 665 532 c 0
 701 540 704 537 695 484 c 0
 689 452 659 382 627 326 c 0
 595 270 569 213 569 198 c 0
 569 183 595 147 626 117 c 0
 733 15 679 -25 569 74 c 2
 505 131 l 1
 437 74 l 2
 399 42 360 16 347 16 c 0
 308 16 322 78 369 110 c 0
 393 126 423 158 436 179 c 0
 459 218 451 242 332 469 c 0
 318 495 311 523 316 530 c 0
EndSplineSet
Validated: 33
EndChar

StartChar: y
Encoding: 121 121 60
Width: 882
VWidth: 0
Flags: W
HStem: 11 21G<392 410> 545 20G<433.5 457.5>
LayerCount: 2
Fore
SplineSet
640 544 m 0
 657 576 670 587 684 582 c 0
 718 570 708 514 660 442 c 0
 617 378 560 275 491 139 c 0
 436 30 422 11 398 11 c 0
 386 11 373 17 370 24 c 0
 367 31 402 102 446 182 c 0
 490 262 524 330 522 332 c 0
 520 334 502 326 483 315 c 0
 441 290 386 300 365 335 c 0
 354 353 356 376 374 431 c 0
 387 471 403 504 409 504 c 0
 415 504 420 517 420 534 c 0
 420 553 427 565 440 565 c 0
 475 565 478 531 449 450 c 0
 415 355 416 358 449 358 c 0
 508 358 579 427 640 544 c 0
EndSplineSet
Validated: 33
EndChar

StartChar: z
Encoding: 122 122 61
Width: 873
VWidth: 1
Flags: W
HStem: 51 56<547.039 775.222> 326 38<658.687 699.701> 449 57<600.068 658.203> 561 10<218.977 237.682>
VStem: 520 80<412.041 451.358>
LayerCount: 2
Fore
SplineSet
254 571 m 0
 267 573 289 572 305 567 c 0
 361 551 436 532 464 528 c 0
 480 526 515 520 543 516 c 0
 571 512 599 507 605 506 c 0
 638 502 666 485 671 465 c 0
 676 445 672 442 638 449 c 0
 609 455 600 453 600 440 c 0
 600 423 675 364 697 364 c 0
 716 364 710 331 690 326 c 0
 664 319 602 347 593 369 c 0
 590 378 581 386 575 386 c 0
 556 386 445 267 438 239 c 0
 423 182 486 137 627 107 c 0
 688 94 698 94 737 114 c 0
 783 138 804 134 804 101 c 0
 804 47 694 21 587 51 c 0
 509 73 376 139 353 168 c 0
 327 200 339 223 430 319 c 0
 480 371 520 419 520 425 c 0
 519 455 493 465 356 493 c 0
 206 523 149 549 204 561 c 0
 219 564 242 569 254 571 c 0
EndSplineSet
Validated: 33
EndChar
